<?xml version="1.0" encoding="UTF-8"?><svg id="Ebene_1" xmlns="http://www.w3.org/2000/svg" viewBox="0 0 523.13 512.65"><path d="m253.77,473.85c-119.79-.35-216.49-97.79-215.9-217.56.59-120.02,97.59-216.3,217.56-215.94,120.2.37,216.85,98.67,215.96,218.45-.88,118.63-97.74,215.72-217.63,215.05Zm-81.19-286.34c1.37-1.41,2.15-2.5,3.18-3.25,9.19-6.61,19.18-11.67,30.2-14.32,31.36-7.54,62.78-7.55,94.08.17,19.35,4.78,35.54,14.91,48.19,30.45,1.95,2.39,3.95,4.74,5.77,7.23,2.38,3.25,5.48,4.4,9.45,4.3,10.33-.26,12.57-3.81,7.88-13.16-3.68-7.35-8.87-13.6-14.83-19.21-16.35-15.4-35.88-24.83-57.54-29.86-24.24-5.63-48.78-6.63-73.53-3.9-16.89,1.87-32.95,6.28-48.23,13.77-25.38,12.43-42.63,32.28-53.5,58.02-2.3,5.44-3.86,11.12-4.17,17.07-1.11,21.09,11.98,40.62,31.84,47.59,20.51,7.19,43.49.59,55.84-16.3,20.43-27.96,7.61-66.89-25.89-76.45-2.62-.75-5.29-1.3-8.77-2.14Zm151.56,133.08c-1.78,1.55-2.7,2.52-3.78,3.27-9.78,6.79-20.46,11.73-32.01,14.46-29.1,6.87-58.36,7.13-87.58.83-23.94-5.16-43.68-17.11-58.04-37.31-.16-.23-.35-.44-.52-.66-4.15-5.13-8.38-6.45-14.81-4.62-3.58,1.02-5.33,3.46-4.16,6.95,1.23,3.69,2.85,7.33,4.86,10.66,4.83,8.01,11.31,14.6,18.6,20.42,15.21,12.13,32.58,19.7,51.43,23.88,25.16,5.58,50.58,6.47,76.11,3.11,17.97-2.36,34.97-7.86,50.74-16.91,21.22-12.17,36.12-29.92,45.7-52.23,1.86-4.34,3.28-9,4.1-13.65,2.17-12.33.27-24.03-6.74-34.63-12.06-18.22-36.51-26.22-57.23-18.8-20.37,7.3-35.05,30.57-32.19,51.9,2.78,20.68,15.01,33.83,34.33,40.71,3.14,1.12,6.52,1.55,11.21,2.63Z"/><path d="m168.67,208.4c14.67.05,26.39,10.27,28.52,24.29,2.11,13.89-5.7,26.28-19.24,30.55-12.59,3.97-27.65-1.94-34.17-13.4-3.07-5.39-3.65-11.14-2.35-17.08.6-2.72,1.81-5.3,2.53-7.99,3.02-11.29,11.59-15,22-16.24,1.11-.13,2.24-.11,2.71-.13Z"/><path d="m325.6,243.8c12.76-.9,25.86,7.72,29.15,22.56,1.96,8.86-1.47,16.5-5.35,24.04-.24.48-.72.86-1.15,1.21-15.63,13.03-39.68,10.68-48.38-10.27-7.25-17.48,4.97-36.43,23.89-37.54.84-.05,1.68,0,1.83,0Z"/></svg>