<?xml version="1.0" encoding="UTF-8"?><svg id="Ebene_1" xmlns="http://www.w3.org/2000/svg" viewBox="0 0 523.13 512.65"><path d="m265.81,41.1c123.66.32,216.98,101.03,217.09,216.59.11,116.49-93.94,216.9-216.55,217.05-122.49.15-216.92-99.79-217.09-216.5-.17-115.85,93.08-216.5,216.55-217.13Zm-78.77,165.82c-.5-.09-.99-.18-1.49-.26-.44-2.72-.89-5.44-1.3-8.16-1.69-11.11-3.95-22.08-8.33-32.5-2.63-6.26-5.91-12.13-10.73-16.96-9.03-9.05-19.82-12.8-32.27-9.04-14.88,4.5-24.96,14.7-31,28.79-2.82,6.57-.32,10.72,6.59,12.61,3.24.89,6.18.36,8.53-2.08,1.54-1.61,2.85-3.45,4.17-5.26,1.65-2.26,3.13-4.66,4.84-6.88,2.43-3.14,5.42-5.64,9.11-7.28,6.87-3.05,12.5-1.82,17.26,4,4.18,5.11,6.52,11.2,7.95,17.48,2.11,9.28,4.01,18.65,5.23,28.08,1.96,15.01,3.15,30.12,4.94,45.16,1.01,8.42,1.37,16.7-1.17,24.93-.74,2.4-1.03,4.94-1.43,7.43-1.58,9.7-3.08,19.43-2.26,29.29.3,3.59.94,7.26,2.13,10.65,1.79,5.13,5.5,8.33,11.18,8.87,5.94.57,10.52-1.74,13.39-6.81,1.63-2.88,2.85-6.12,3.61-9.34,1.57-6.59,1.86-13.34.95-20.07-1.17-8.61-2.44-17.21-3.82-25.78-.68-4.19-1.02-8.28.01-12.5,6.14-25.06,12.83-49.96,21.46-74.3,1.78-5.02,3.66-10.02,5.91-14.84,1.52-3.27,3.43-6.49,5.74-9.24,5.87-6.99,12.74-7.01,18.45-.05,2.28,2.78,4.3,5.99,5.54,9.34,2.43,6.55,4.86,13.21,6.15,20.05,3.29,17.35,5.81,34.84,8.95,52.22.98,5.44.25,10.48-.95,15.72-2.51,10.92-4.83,21.89-6.87,32.91-1.34,7.21-1.48,14.52.76,21.67,1.91,6.11,5.22,11.16,11.14,14.11,7.24,3.6,14.83,1.51,19.07-5.31,2.27-3.64,3.62-7.68,3.57-11.95-.09-8.4-.06-16.84-.84-25.18-.81-8.64-2.69-17.17-3.78-25.79-.45-3.56-.8-7.43.11-10.81,5.19-19.21,10.58-38.37,16.34-57.42,2.18-7.21,5.29-14.18,8.47-21.03,1.75-3.76,4.14-7.4,6.92-10.47,6.7-7.4,16.52-6.85,22.35,1.25,2.08,2.88,3.5,6.4,4.54,9.83,2.3,7.59,2.6,15.51,2.33,23.34-.4,11.77-1.37,23.52-2.08,35.28-1.05,17.37-1.78,34.76-.47,52.14,1.02,13.51,3.85,26.63,9.95,38.88,6.61,13.28,16.55,23.25,29.88,29.68,4.22,2.03,8.82,3.26,13.76,5.05-1.65,2.12-3.18,4.06-4.68,6.01-1.54,2-3.18,3.93-4.54,6.04-1.62,2.52-1.83,5.28-.35,7.99,3.47,6.39,9.89,7.65,15.42,3.02,1.07-.9,2.09-1.88,3.02-2.93,5.4-6.09,10.71-12.25,16.15-18.3,6.4-7.12,5.78-16.42-.1-22.85-5.49-6-10.76-12.2-16.21-18.25-1.49-1.66-3.11-3.29-4.96-4.51-1.32-.87-3.17-1.59-4.66-1.39-4.15.54-7.08,3.21-9.11,6.75-1.63,2.83-.33,5.43,1.16,7.88,1.38,2.26,2.87,4.45,5.15,7.96-2.48-.94-3.5-1.19-4.4-1.68-6.85-3.71-11.99-9.15-15.92-15.81-3.89-6.58-6.54-13.65-8-21.14-2.65-13.57-3.06-27.28-2.35-41.06.95-18.49,2.02-36.97,2.75-55.47.36-9.25.03-18.51-1.82-27.65-1.4-6.94-3.57-13.55-7.55-19.47-11.02-16.42-38.02-22.82-54.33-3.3-1.97,2.36-3.97,4.78-5.45,7.45-2.99,5.38-6.07,10.78-8.31,16.49-3.28,8.34-5.82,16.96-8.74,25.43-.59,1.71-1.45,3.33-2.71,6.17-.91-4.31-1.59-7.3-2.17-10.3-1.97-10.21-4.43-20.27-8.61-29.84-2.72-6.21-6.14-11.98-11.07-16.74-10-9.66-23.32-11.62-35.69-5.23-6.67,3.45-12.1,8.29-15.22,15.17-4.17,9.18-8.14,18.46-11.78,27.86-2.81,7.28-4.98,14.82-7.43,22.25Z"/></svg>