<?xml version="1.0" encoding="UTF-8"?><svg id="Ebene_1" xmlns="http://www.w3.org/2000/svg" viewBox="0 0 523.13 512.65"><path d="m260.27,41.1c121.53.49,216.77,98.75,216.66,217.01-.11,119.18-96.5,216.74-216.96,216.63-121.7-.11-216.71-99.28-216.66-216.93.05-116.67,94.13-216.35,216.96-216.71Zm-91.28,253.2c0,.07,0,.13,0,.2,7.57,0,15.14.07,22.71-.02,8.69-.11,17.38-.24,26.06-.61,5.02-.21,6.33-2.11,5.3-7.11-.45-2.18-1.23-4.31-2.03-6.39-1.21-3.13-2.47-6.26-3.91-9.3-6.97-14.76-9.21-30.45-9.42-46.59-.23-17.38,7.98-29.96,22.23-38.92,9.85-6.2,20.87-8.04,32.32-6.81,19.01,2.04,36.53,13.62,42.65,35.21,2.4,8.48,2.62,17.14,1.23,25.84-1.57,9.75-4.67,19.03-8.62,28.04-1.91,4.36-3.98,8.66-5.76,13.08-3.09,7.67-1.4,10.28,6.96,10.51,8.13.22,16.26.12,24.39.13,20.75.02,41.49.04,62.24,0,2.51,0,5.07-.12,7.52-.63,4.16-.88,6.25-3.41,6.66-7.58.14-1.39.13-2.81-.02-4.2-.41-3.71-2.35-6.32-6.06-7.15-2.44-.55-4.98-.87-7.49-.91-10.65-.16-21.3-.2-31.95-.25-6.17-.03-12.34.15-18.5-.05-2.76-.09-5.6-.6-8.22-1.46-3.22-1.06-4.83-3.95-4.35-7.29.36-2.49,1.08-4.92,1.69-7.37,2.42-9.57,3.72-19.29,3.28-29.15-1.26-28.33-14.31-49.09-40.33-60.9-17.81-8.08-36.39-8.99-54.98-3.05-23.22,7.42-37.76,23.29-43.58,47-2.99,12.17-2.6,24.48-.85,36.76.75,5.26,1.96,10.47,3.31,15.61,1.82,6.92-.57,12.47-8.89,12.23-3.92-.11-7.85.23-11.77.22-14.58-.03-29.16-.19-43.73-.13-3.61.01-7.25.52-10.83,1.06-2.74.41-4.36,2.3-5.21,4.91-.99,3.03-1.07,6.05-.09,9.08.83,2.57,2.42,4.51,5.18,4.96,3.03.49,6.11.95,9.17.97,14.58.1,29.16.04,43.73.04Zm85.56,38.35v.02h49.6c24.09,0,48.18.06,72.28-.04,5.59-.02,11.23-.27,16.76-.99,5.83-.76,8.58-5.42,7.16-11.03-1.48-5.83-4.54-8.37-10.7-8.78-1.67-.11-3.36-.05-5.04-.05-23.82-.05-47.63-.13-71.45-.14-44.27-.02-88.55-.05-132.82.02-17.09.03-34.18.27-51.27.52-3.91.06-7.84.41-11.72.95-1.53.22-3.31,1.01-4.33,2.12-2.77,3.04-2.57,11.19.23,14.18.9.96,2.25,1.72,3.53,2.08,1.59.45,3.32.52,4.99.56,11.2.23,22.4.54,33.61.56,33.06.07,66.12.03,99.17.03Z"/></svg>