<?xml version="1.0" encoding="UTF-8"?><svg id="Ebene_1" xmlns="http://www.w3.org/2000/svg" viewBox="0 0 523.13 512.65"><path d="m268.57,476.6c-117.15.2-216.63-94.54-216.41-217.09.22-122.41,99.67-216.67,217.14-216.44,119.16.23,217.06,96.98,216.42,218.01-.63,120.03-98.43,216-217.15,215.52Zm-1.78-181.17c-2.98-11.85-5.28-21.96-8.09-31.92-5.19-18.38-11.7-36.28-20.35-53.35-4.19-8.27-8.84-16.27-14.93-23.33-20.08-23.31-52.9-29.2-79.38-13.97-34.66,19.94-41.8,63-19.93,93.13,1.95,2.69,4.26,5.28,6.88,7.31,3.93,3.06,9.12,2.36,12.19-1.07,2.94-3.28,3.69-8.73,1.47-12.55-1.26-2.17-2.96-4.08-4.41-6.14-20.62-29.42.39-62.05,26.13-67.67,5.58-1.22,11.05-1.32,16.66-.15,9.38,1.95,17.22,6.54,23.94,13.21,5.44,5.39,9.49,11.77,12.95,18.55,6.41,12.52,11.34,25.66,15.22,39.13,7.05,24.5,13.51,49.18,20.57,73.68,1.86,6.45,1.77,12.57.71,19.03-1.51,9.12-2.76,18.3-3.65,27.5-.81,8.42-.2,16.86,2.34,24.97,1.07,3.42,2.55,6.92,4.66,9.79,7.15,9.74,19.86,8.5,25.32-2.34,1.12-2.22,1.81-4.71,2.39-7.15,1.61-6.9,1.6-13.89.87-20.91-1.29-12.32-3.89-24.36-8.03-36.03-1.18-3.31-1.52-6.43-.79-9.84,5.81-27.15,12.22-54.13,21.17-80.45,4.07-11.96,8.61-23.71,14.46-34.93,4.44-8.5,9.8-16.34,16.77-23.01,18.03-17.28,40.55-13.72,55.14-2.08,18.19,14.51,23.03,40.45,7.09,59.81-.71.87-1.48,1.69-2.16,2.58-4.54,5.87-4.46,9.4.28,14.91,5.12,5.94,8.41,6.19,13.85.49,8.68-9.11,14.72-19.78,17.47-32.12,1.41-6.31,2.09-12.71,1.1-19.21-3.79-24.85-17.62-42.21-40.36-52-22.56-9.72-43.87-6.36-63.11,9.02-7.76,6.2-13.78,13.93-18.91,22.38-5.99,9.86-10.74,20.31-15,31-7.58,19.04-13.42,38.64-18.51,58.47-.32,1.26-.93,2.45-2.03,5.27Z"/></svg>