<?xml version="1.0" encoding="UTF-8"?><svg id="Ebene_1" xmlns="http://www.w3.org/2000/svg" viewBox="0 0 523.13 512.65"><path d="m260.11,41.1c124.64.37,217.01,102.02,217.13,216.56.13,115.88-93.43,216.9-216.53,217.07-122.45.16-216.94-99.68-217.12-216.46-.18-116.1,93.26-216.54,216.52-217.17Zm-20.06,229.4c-1.78,1.96-3.58,4.04-5.48,6.03-15.86,16.65-31.79,33.23-47.58,49.93-8.09,8.56-16,17.28-23.89,26.03-2.24,2.49-4.18,5.26-6.13,7.99-1.87,2.62-1.5,5.27.33,7.78.49.68,1,1.35,1.57,1.97,4.18,4.51,9.51,5.49,13.89.9,3.87-4.05,8.07-7.79,11.94-11.84,22.08-23.11,44.1-46.28,66.17-69.41,1.46-1.53,3.16-2.85,4.97-4.46,2.43,2.31,4.48,4.18,6.44,6.14,9.53,9.5,19.04,19.03,28.56,28.54,1.59,1.58,3.11,3.27,4.87,4.63,4.21,3.25,8.86,2.77,12.87-1.12,4.07-3.95,4.74-8.33,1.61-12.79-1.59-2.28-3.56-4.33-5.53-6.31-10.07-10.15-20.22-20.23-30.3-30.38-1.32-1.33-2.42-2.87-3.89-4.63,2.37-2.62,4.36-4.92,6.45-7.12,15.45-16.26,30.91-32.51,46.38-48.75,14.89-15.64,29.77-31.27,44.7-46.87,1.02-1.07,1.92-3.02,4.4-1.49,0,9.32-.01,18.84,0,28.36.02,11.78-.01,23.55.12,35.33.03,3.06.34,6.17.95,9.17.8,3.88,3.07,5.72,6.96,6.17,1.38.16,2.81.16,4.2.04,4.57-.42,7.21-2.74,7.93-7.25.39-2.48.41-5.03.43-7.54.15-13.46.27-26.91.34-40.37.05-9.81.09-19.63-.03-29.44-.06-4.76-.4-9.53-.84-14.27-.78-8.34-5.46-13.84-12.94-17.22-3.68-1.66-7.54-1.95-11.51-1.94-20.47.08-40.94.08-61.41.18-7.85.04-15.7.13-23.55.43-6.62.25-8.29,2.11-8.48,8.71-.03,1.12,0,2.25.12,3.36.55,4.91,2.54,7.05,7.39,7.53,3.06.3,6.16.27,9.24.27,19.91-.02,39.82-.11,59.73-.08,1.76,0,4-.97,5.27,1.7-.81,1.01-1.6,2.16-2.55,3.15-31.72,33.29-63.46,66.56-95.22,99.82-1.09,1.14-2.42,2.05-3.81,3.21-1.43-1.24-2.53-2.08-3.49-3.06-8.03-8.22-16.03-16.48-24.05-24.71-2.35-2.41-4.58-4.96-7.13-7.13-3.85-3.27-8.93-2.84-12.97.76-3.56,3.17-4.62,8.16-2.1,12.17,1.77,2.82,3.98,5.43,6.31,7.83,7.41,7.65,15,15.13,22.46,22.74,2.13,2.17,4.79,3.91,6.23,7.33Z"/></svg>