<?xml version="1.0" encoding="UTF-8"?><svg id="Ebene_1" xmlns="http://www.w3.org/2000/svg" viewBox="0 0 523.13 512.65"><path d="m474.26,259.03c-.08,119.21-96.52,216.66-217,216.58-118.78-.08-216.65-95.78-216.56-217.02.09-120.21,97.06-216.71,217.01-216.57,121.14.14,216.77,98.36,216.56,217Zm-259.7-66.27c-1.09-4.15-1.83-6.77-2.46-9.42-2.26-9.56-4.79-19.04-8.72-28.07-3.04-6.98-6.81-13.51-12.35-18.89-6.1-5.93-13.32-9.03-21.86-9.4-9.35-.41-17.69,2.48-25.5,7.23-11.45,6.96-20.47,16.5-28.4,27.16-.67.89-1.23,1.89-1.71,2.9-1.8,3.83-1.3,7.07,1.74,9.93,1.41,1.33,3.03,2.52,4.73,3.45,4.46,2.44,7.73,1.77,11.18-2.16,1.11-1.26,2-2.7,3.04-4.02,4.89-6.18,10.15-12.05,16.66-16.54,3.42-2.36,7.19-4.37,11.07-5.87,5.91-2.28,11.07-.39,15.06,4.35,1.79,2.12,3.41,4.51,4.56,7.02,1.97,4.32,3.91,8.74,5.15,13.3,2.49,9.19,5.07,18.42,6.59,27.8,3.04,18.81,5.44,37.73,7.97,56.62.29,2.16-.08,4.45-.38,6.65-1.65,12.22-3.49,24.42-5,36.66-.58,4.71-.62,9.51-.61,14.27,0,4.29,1.33,8.3,3.71,11.89,3.58,5.38,9.18,7.39,15.38,5.83,6.12-1.55,9.71-5.68,10.94-11.54.97-4.62,1.51-9.46,1.33-14.17-.42-11.2-1.33-22.39-2.16-33.57-.47-6.43-1.46-12.86-.25-19.29,3.22-17.07,6.27-34.18,9.89-51.17,2.57-12.06,6.16-23.91,11.35-35.15,2.22-4.8,5.05-9.36,8.02-13.74,2.54-3.75,6.16-6.51,10.27-8.51,9.55-4.65,19.31-1.76,24.67,7.37,3.62,6.16,5.29,13.02,6.04,19.99,1.32,12.26,2.53,24.55,3.08,36.87.87,19.33,1.23,38.68,3.52,57.92.3,2.54.09,4.89-1.11,7.32-5.94,12.07-11.62,24.27-17.53,36.36-4.07,8.32-8.6,16.39-14.36,23.7-11.46,14.55-26.19,23.32-44.67,25.84-8.69,1.19-17.32,1.18-26.01.51-2.78-.21-5.63-.39-8.38-.04-4.01.51-6.55,2.97-7.29,7.05-.2,1.1-.34,2.22-.39,3.34-.2,5.46,1.37,7.81,6.56,9.18,2.69.71,5.51,1.23,8.28,1.31,7.56.22,15.18.69,22.7.11,27.15-2.09,49.58-13.43,65.94-35.51,4.98-6.73,9.16-14.1,13.23-21.44,3.53-6.36,6.36-13.11,9.56-19.66.71-1.45,1.66-2.78,2.52-4.21.55.41.84.54.99.76.78,1.16,1.59,2.29,2.26,3.51,8.35,15.41,21.5,24.04,38.51,27.02,21.64,3.79,38.53-5.21,48.21-22.66,6.47-11.66,8.62-24.28,6.94-37.42-3.11-24.4-20.5-39.74-45.03-40.33-13.08-.32-24.87,3.31-35.69,10.53-1.76,1.17-3.12,3.3-6.11,2.99-.19-1.33-.48-2.64-.54-3.97-.53-10.92-.83-21.86-1.57-32.77-.89-13.14-1.84-26.29-3.35-39.36-1.13-9.8-4.22-19.16-9.41-27.67-8.17-13.39-20.1-19.83-35.81-19.37-11.95.35-21.52,5.59-29.5,14.13-5.41,5.8-9.73,12.41-12.75,19.68-3.66,8.78-6.7,17.82-9.97,26.76-.85,2.33-1.54,4.72-2.8,8.63Z"/><path d="m388.26,283.45c.12,6.94-1.43,13.65-4.99,19.88-5.68,9.95-14.63,13.41-25.47,12.5-8.45-.71-15.41-4.71-20.91-11.17-6.29-7.39-10.16-15.96-12.39-25.36-.5-2.08-.15-3.82,1.01-5.54,11.07-16.51,27.43-22.3,44.98-18.39,6.81,1.52,11.42,5.44,14.41,11.63,2.5,5.16,3.42,10.59,3.36,16.45Z"/></svg>